HIERARCHY
ROOT Pelvis
{
	OFFSET 0.000000 0.000000 0.000000
	CHANNELS 6 Xposition Yposition Zposition Zrotation Yrotation Xrotation 
	JOINT Left_hip
	{
		OFFSET 0.076090 -0.089427 -0.010735
		CHANNELS 3 Zrotation Yrotation Xrotation
		JOINT Left_knee
		{
			OFFSET 0.030200 -0.359518 -0.003501
			CHANNELS 3 Zrotation Yrotation Xrotation
			JOINT Left_ankle
			{
				OFFSET -0.011005 -0.371022 -0.045888
				CHANNELS 3 Zrotation Yrotation Xrotation
				JOINT Left_foot
				{
					OFFSET 0.023930 -0.052103 0.111084
					CHANNELS 3 Zrotation Yrotation Xrotation
					End Site
					{
						OFFSET 0.000000 0.000000 0.000000
					}
				}
			}
		}
	}
	JOINT Right_hip
	{
		OFFSET -0.073836 -0.088112 -0.007709
		CHANNELS 3 Zrotation Yrotation Xrotation
		JOINT Right_knee
		{
			OFFSET -0.035715 -0.367809 -0.006536
			CHANNELS 3 Zrotation Yrotation Xrotation
			JOINT Right_ankle
			{
				OFFSET 0.013718 -0.371958 -0.043815
				CHANNELS 3 Zrotation Yrotation Xrotation
				JOINT Right_foot
				{
					OFFSET -0.021936 -0.046387 0.114542
					CHANNELS 3 Zrotation Yrotation Xrotation
					End Site
					{
						OFFSET 0.000000 0.000000 0.000000
					}
				}
			}
		}
	}
	JOINT Spine1
	{
		OFFSET -0.001865 0.102064 -0.019455
		CHANNELS 3 Zrotation Yrotation Xrotation
		JOINT Spine2
		{
			OFFSET 0.003082 0.129260 -0.001938
			CHANNELS 3 Zrotation Yrotation Xrotation
			JOINT Spine3
			{
				OFFSET 0.001104 0.048093 0.026561
				CHANNELS 3 Zrotation Yrotation Xrotation
				JOINT Neck
				{
					OFFSET -0.002010 0.204222 -0.047183
					CHANNELS 3 Zrotation Yrotation Xrotation
					JOINT Head
					{
						OFFSET 0.005050 0.063649 0.048489
						CHANNELS 3 Zrotation Yrotation Xrotation
						End Site
						{
							OFFSET 0.000000 0.000000 0.000000
						}
					}
				}
				JOINT Left_collar
				{
					OFFSET 0.072979 0.114065 -0.031633
					CHANNELS 3 Zrotation Yrotation Xrotation
					JOINT Left_shoulder
					{
						OFFSET 0.083419 0.032092 -0.006530
						CHANNELS 3 Zrotation Yrotation Xrotation
						JOINT Left_elbow
						{
							OFFSET 0.239393 -0.012014 -0.025060
							CHANNELS 3 Zrotation Yrotation Xrotation
							JOINT Left_wrist
							{
								OFFSET 0.227297 0.008116 0.000384
								CHANNELS 3 Zrotation Yrotation Xrotation
								JOINT Left_palm
								{
									OFFSET 0.074607 -0.009248 -0.012277
									CHANNELS 3 Zrotation Yrotation Xrotation
									End Site
									{
										OFFSET 0.000000 0.000000 0.000000
									}
								}
							}
						}
					}
				}
				JOINT Right_collar
				{
					OFFSET -0.074980 0.111880 -0.037894
					CHANNELS 3 Zrotation Yrotation Xrotation
					JOINT Right_shoulder
					{
						OFFSET -0.087565 0.034353 -0.009323
						CHANNELS 3 Zrotation Yrotation Xrotation
						JOINT Right_elbow
						{
							OFFSET -0.236838 -0.013719 -0.019794
							CHANNELS 3 Zrotation Yrotation Xrotation
							JOINT Right_wrist
							{
								OFFSET -0.235053 0.006433 -0.003853
								CHANNELS 3 Zrotation Yrotation Xrotation
								JOINT Right_palm
								{
									OFFSET -0.075499 -0.006894 -0.009792
									CHANNELS 3 Zrotation Yrotation Xrotation
									End Site
									{
										OFFSET 0.000000 0.000000 0.000000
									}
								}
							}
						}
					}
				}
			}
		}
	}
}
MOTION
Frames: 13
Frame Time: 0.100000
0.000000 0.000000 0.000000 168.606468 49.217462 -17.381625 0.992551 -3.273921 5.742392 -2.988692 -5.207796 -8.763277 -6.172609 8.025073 -1.349732 13.796460 2.829721 -7.367262 -1.048891 -0.192329 4.418620 3.793005 -0.923744 -3.735831 7.596312 -4.549163 -6.365230 -10.931885 -1.515368 4.601846 0.486328 0.913364 -0.708686 2.427282 -2.691849 4.787700 1.617060 -1.702872 -0.452942 -5.095425 -9.209296 -3.927994 1.469309 -9.533418 0.431986 -22.761949 3.580892 5.507043 -63.172055 0.339411 26.496550 163.685847 -80.719888 -155.438646 -0.577626 -7.545886 -54.939524 -17.306791 -0.957401 -3.827431 20.396064 -0.178966 2.397561 58.475817 -7.423602 26.183941 -143.650292 70.064773 -136.231678 13.969565 12.453789 -53.554030 9.483833 5.649859 -4.243507 
0.000712 0.000139 -0.000855 168.624893 49.070030 -17.405911 1.009805 -3.274074 5.707522 -3.030659 -5.144340 -8.733978 -6.130265 7.934871 -1.253633 13.779771 3.442650 -7.435400 -1.037452 -0.075458 4.354976 3.790187 -0.843360 -3.730732 7.654015 -4.717637 -6.309145 -11.258571 -1.244792 4.520324 0.568095 0.866714 -0.838481 2.361542 -2.608874 5.046132 1.560132 -1.734118 -0.550097 -4.967864 -9.015882 -3.886026 1.205378 -9.551909 0.318350 -22.861128 3.756887 5.398704 -62.655373 0.394659 26.154340 163.063827 -80.555939 -154.302287 -3.597705 -8.250129 -53.628028 -16.923712 -0.944303 -4.233842 20.373801 -0.254382 2.279978 58.198094 -7.488956 26.062520 -143.327285 69.977514 -135.911582 15.782450 12.808404 -52.963189 9.459771 5.568633 -4.312550 
0.001977 0.000175 -0.001623 168.629262 48.993756 -17.533570 1.033121 -3.266035 5.751251 -3.029211 -5.098648 -8.719459 -6.090276 7.926566 -1.205202 13.702577 3.479659 -7.437184 -0.999295 -0.062340 4.392534 3.777260 -0.824138 -3.729392 7.626679 -4.699595 -6.251686 -11.207679 -1.253639 4.545103 0.543606 0.855750 -0.859624 2.334194 -2.610752 5.119351 1.539194 -1.749630 -0.553388 -5.024994 -9.042634 -3.764551 1.189444 -9.512502 0.313377 -22.928465 3.737973 5.397447 -62.684883 0.300615 26.182311 163.016302 -80.468087 -154.259824 -3.721167 -8.287784 -53.694135 -16.912256 -0.937129 -4.201708 20.377010 -0.296300 2.290460 58.118231 -7.550963 26.026281 -143.275974 69.865155 -135.925597 15.894211 12.910861 -53.127860 9.467965 5.560769 -4.284522 
0.003619 0.000225 -0.002507 168.623682 48.958210 -17.684169 1.050978 -3.258407 5.749373 -3.015221 -5.067703 -8.635984 -6.047779 7.914288 -1.171256 13.626235 3.524828 -7.443929 -0.956070 -0.060984 4.386129 3.763994 -0.824129 -3.650077 7.599164 -4.679075 -6.207387 -11.153678 -1.272986 4.524908 0.509108 0.861544 -0.840614 2.329160 -2.604005 5.163351 1.535948 -1.757996 -0.547384 -5.065320 -9.024341 -3.691765 1.176778 -9.510706 0.232850 -22.944305 3.760733 5.399282 -62.744375 0.236030 26.187650 163.116060 -80.374776 -154.316553 -3.657838 -8.219269 -53.802750 -16.892722 -0.952408 -4.141863 20.406470 -0.350979 2.292905 58.194740 -7.570738 26.011658 -143.225788 69.759110 -135.866068 15.718533 12.851412 -53.218741 9.543636 5.589586 -4.284815 
0.006018 0.000207 -0.003736 168.663077 48.887348 -17.791712 1.075475 -3.251723 5.648711 -3.010969 -4.989719 -8.494043 -6.263919 7.934803 -1.087565 13.963149 3.558309 -7.495457 -0.914907 -0.050996 4.204257 3.711387 -0.809856 -3.394252 7.944333 -4.723049 -6.127071 -11.832619 -1.052025 4.243632 0.548719 0.910403 -0.689677 2.267293 -2.545113 5.282185 1.590878 -1.619529 -0.541155 -5.270321 -8.862504 -4.203160 1.252601 -9.454148 -0.158511 -22.596275 3.199413 5.413840 -62.962847 0.110275 26.112424 160.584062 -80.440414 -151.955417 -3.693432 -8.070533 -53.897976 -16.856415 -0.973073 -4.127876 20.073754 0.279197 2.415670 58.489803 -7.331447 25.841590 -141.672176 70.044591 -134.522001 15.867564 12.735501 -53.105145 9.552261 5.586568 -4.439514 
0.012416 -0.000242 -0.008213 169.005488 48.430927 -17.252095 1.063155 -3.256899 4.535491 -3.065913 -4.423085 -7.840661 -6.709507 7.441332 -0.414817 14.455088 5.373748 -8.110701 -0.868426 0.077340 2.828550 3.413486 -0.929546 -2.489537 9.097475 -4.887695 -5.599682 -14.149301 0.063799 2.910080 1.188106 0.963260 0.363223 1.482718 -1.809828 4.607826 1.533403 -1.030069 -0.641892 -5.130924 -8.165953 -7.461167 1.332080 -8.971941 -1.336409 -20.988822 1.360765 4.112389 -63.382180 -3.000156 24.293663 132.173668 -79.038435 -123.721682 -7.639097 -8.517664 -52.718628 -15.062803 -0.421947 -3.080709 18.033003 2.678016 1.983228 59.758901 -5.140320 25.080673 -133.204515 70.513282 -126.369502 18.667199 12.851452 -52.399635 8.596357 5.019466 -3.777286 
0.021163 -0.000388 -0.012667 169.257548 47.728208 -16.791125 1.175413 -2.664992 3.133258 -2.931308 -3.829030 -6.978701 -6.499776 6.224329 0.286904 13.227712 7.797141 -8.276000 -0.702710 -0.126875 1.510210 3.243401 -0.983847 -2.065875 9.661017 -4.490563 -4.722155 -14.700986 0.803928 1.897538 1.824535 1.255928 1.500222 0.677319 -1.051236 3.448689 1.628676 -0.172668 -0.928988 -5.284427 -6.362268 -10.895184 0.524275 -7.635338 -2.662324 -18.237880 -2.193931 1.031104 -61.833963 -10.640408 20.490025 109.024948 -71.374454 -98.662291 -6.032135 -5.908236 -44.780965 -13.803957 -0.256074 -2.315540 15.234558 6.530871 0.273707 58.594102 1.519216 22.104468 -118.344601 67.130136 -111.088933 16.841501 10.998029 -49.206937 8.450095 4.555252 -2.773077 
0.029522 -0.000621 -0.015587 169.073834 47.653907 -16.729549 1.446421 -2.325555 1.931628 -2.737214 -3.600197 -6.321367 -6.348760 5.279013 0.785083 11.943783 9.052758 -8.219437 -0.323022 -0.580099 0.528938 3.076890 -0.955228 -1.801493 10.271133 -4.601792 -4.165193 -15.490821 2.082221 1.149769 2.023923 1.311879 2.501670 0.216356 -0.970210 1.922637 1.880287 0.203182 -0.808318 -5.144225 -4.333830 -13.870817 0.156031 -5.876968 -3.200686 -15.373765 -4.930398 -1.663960 -60.729934 -17.547797 16.644459 105.441845 -61.550040 -94.420933 1.759767 -1.401865 -42.696503 -13.528804 -0.737427 -0.134224 12.470942 8.945050 -1.971125 56.608299 8.804511 17.991961 -108.833124 59.583933 -101.511838 8.712273 6.922812 -46.360080 9.837569 4.772297 -1.906991 
0.036936 -0.000684 -0.017695 168.797719 48.110247 -16.469006 1.654588 -2.179708 0.519468 -2.508119 -3.443478 -5.693461 -6.537081 4.363018 1.306051 11.610891 9.831082 -8.652330 0.058516 -0.829298 -0.726673 2.778951 -1.616594 -1.243278 10.933699 -4.205500 -3.711072 -16.589335 1.846004 0.361165 2.108832 1.109166 3.821030 -0.066047 -0.985195 0.365949 2.121800 0.290188 -0.603482 -4.978951 -3.028599 -16.397386 0.129484 -4.547217 -3.775980 -12.973250 -4.832399 -3.246246 -61.840297 -20.824774 14.111077 118.194613 -51.609180 -103.230868 10.755797 2.556631 -42.345579 -14.122086 -1.120547 1.286558 10.081710 8.804290 -3.726069 57.149540 12.957470 14.142587 -112.876426 49.239875 -103.764023 -0.948713 4.032816 -46.270920 11.689625 4.932700 -1.154022 
0.043268 -0.000331 -0.019096 168.331081 49.172998 -16.195792 1.836018 -2.078378 -0.884813 -2.323732 -3.386731 -5.320332 -6.857958 3.492501 1.940944 11.469706 10.423388 -9.545485 0.254839 -1.037634 -1.648851 2.663496 -2.553620 -1.388537 11.510760 -3.343796 -3.010949 -17.198106 0.168780 -0.453833 2.385580 0.816505 5.286288 -0.265125 -0.984665 -0.794638 2.272853 0.180598 -0.163826 -5.052428 -2.502829 -17.772230 -0.094741 -3.668273 -4.862197 -11.787968 -2.044980 -3.628898 -63.980289 -20.520257 12.184368 133.001890 -42.932850 -110.960209 21.085020 4.011010 -38.746114 -14.770902 -1.599378 1.310854 8.571843 6.379400 -4.395710 58.373011 13.568462 11.366046 -123.714342 40.634129 -109.233966 -13.303407 2.090946 -43.297629 13.946482 5.320330 -1.022193 
0.049616 0.001087 -0.020171 167.872594 50.482632 -15.759499 2.023061 -1.682682 -2.271902 -2.296913 -3.762379 -5.276478 -6.597914 2.597678 2.451359 10.261405 11.103018 -9.977893 0.311534 -1.008525 -2.485741 2.862252 -3.469268 -1.953228 10.449855 -2.394183 -2.558518 -14.913750 -2.193407 -0.211780 2.719284 0.380381 6.907708 -0.389860 -0.959388 -1.829631 2.248054 -0.338580 -0.137254 -4.561272 -2.320512 -17.569926 -0.715190 -2.752842 -6.390967 -14.242244 2.484324 -3.398262 -64.684446 -17.834752 9.665137 136.388101 -40.054983 -109.513718 28.070858 3.384733 -31.584811 -15.241657 -2.315271 -0.858099 10.294240 2.464633 -4.477597 59.305622 11.846136 10.122381 -128.773743 36.884756 -110.554595 -22.341405 1.254159 -40.598451 15.726684 5.702504 -0.979356 
0.056707 0.002098 -0.020628 167.666604 51.441642 -15.492304 2.334615 -1.598935 -2.902336 -2.493638 -4.344476 -5.919329 -6.618140 2.731121 2.937211 10.046201 10.806925 -9.754583 0.202801 -1.055417 -2.915618 3.318140 -3.460972 -2.721421 10.013414 -2.796750 -2.357389 -14.435797 -1.971408 -0.085246 2.700171 0.146893 8.036727 -0.370383 -1.031424 -1.895124 2.337318 -0.843647 0.135927 -4.444022 -2.308555 -17.337833 -0.339683 -2.077511 -8.104465 -17.086162 5.556290 -2.470529 -66.115980 -14.700297 8.716480 127.584145 -42.951960 -104.926990 29.593678 7.732707 -35.419875 -15.812049 -3.215263 -1.125554 13.091447 -0.453162 -3.625029 61.530594 8.542119 10.715397 -123.490049 38.140125 -108.747687 -26.547378 -1.908550 -43.989255 17.709560 6.365912 -1.664604 
0.064995 0.003029 -0.022074 167.706331 51.798521 -15.185285 2.381900 -1.901356 -4.053212 -2.341812 -4.504163 -5.299443 -7.121567 3.283960 3.076936 11.316484 10.477751 -9.977678 0.239456 -0.981937 -3.828664 3.428756 -3.330245 -2.410022 10.733428 -3.643674 -2.363743 -16.277955 -1.107222 -0.586925 2.597235 0.110538 9.336547 -0.451212 -1.054221 -1.596138 2.484657 -1.085911 0.345046 -4.471223 -2.191953 -18.235640 0.673148 -1.464999 -8.695793 -18.052409 6.303855 -1.195554 -67.990937 -12.136679 9.195852 123.086771 -45.679415 -103.667225 28.114924 10.171122 -40.034097 -16.222538 -3.617424 -1.358650 13.845513 -1.415794 -2.350577 64.257700 5.096030 11.419010 -119.332740 40.115970 -107.704682 -25.116927 -4.078667 -47.782590 18.243016 6.637614 -2.574896 
